<?xml version="1.0" encoding="UTF-8"?>
<!DOCTYPE svg PUBLIC "-//W3C//DTD SVG 1.1//EN" "http://www.w3.org/Graphics/SVG/1.1/DTD/svg11.dtd">
<svg xmlns="http://www.w3.org/2000/svg" version="1.1" width="96px" height="96px" style="shape-rendering:geometricPrecision; text-rendering:geometricPrecision; image-rendering:optimizeQuality; fill-rule:evenodd; clip-rule:evenodd" xmlns:xlink="http://www.w3.org/1999/xlink">
<g><path style="opacity:0.964" fill="#fc9b27" d="M 4.5,20.5 C 20.5,20.5 36.5,20.5 52.5,20.5C 52.5,24.5 52.5,28.5 52.5,32.5C 47.1667,32.5 41.8333,32.5 36.5,32.5C 36.5,46.1667 36.5,59.8333 36.5,73.5C 31.1667,73.5 25.8333,73.5 20.5,73.5C 20.5,59.8333 20.5,46.1667 20.5,32.5C 15.1667,32.5 9.83333,32.5 4.5,32.5C 4.5,28.5 4.5,24.5 4.5,20.5 Z"/></g>
<g><path style="opacity:0.936" fill="#fc9b27" d="M 56.5,20.5 C 67.8333,20.5 79.1667,20.5 90.5,20.5C 90.6666,33.1711 90.4999,45.8377 90,58.5C 89.1422,66.3558 84.9755,71.5225 77.5,74C 69.4715,75.3559 61.8048,74.3559 54.5,71C 52.981,69.6487 51.6477,68.1487 50.5,66.5C 53.5209,63.3135 56.3542,59.9802 59,56.5C 62.7613,61.7465 67.428,63.0798 73,60.5C 74.4455,51.2736 74.9455,41.9402 74.5,32.5C 68.5,32.5 62.5,32.5 56.5,32.5C 56.5,28.5 56.5,24.5 56.5,20.5 Z"/></g>
</svg>
